<?xml version="1.0" standalone="no"?><!DOCTYPE svg PUBLIC "-//W3C//DTD SVG 1.1//EN" "http://www.w3.org/Graphics/SVG/1.1/DTD/svg11.dtd"><svg class="icon" height="512" viewBox="0 0 1024 1024" version="1.1" xmlns="http://www.w3.org/2000/svg"><path d="M511.693107 512.511489m-511.488512 0a511.488511 511.488511 0 1 0 1022.977023 0 511.488511 511.488511 0 1 0-1022.977023 0Z" fill="#FF4F4F" /><path d="M512.773371 685.451892c44.806394 0 81.01978-385.764635 81.01978-429.445754s-36.315684-79.178422-81.01978-79.178422-81.01978 35.395005-81.019781 79.178422 36.315684 429.445754 81.019781 429.445754z" fill="" /><path d="M512.773371 685.451892c44.806394 0 81.01978-385.764635 81.01978-429.445754s-36.315684-79.178422-81.01978-79.178422-81.01978 35.395005-81.019781 79.178422 36.315684 429.445754 81.019781 429.445754z" fill="#FFFFFF" /><path d="M516.251493 726.677866c-38.873127 0-70.380819 30.791608-70.38082 68.744056s31.507692 68.744056 70.38082 68.744056 70.380819-30.791608 70.380819-68.744056-31.60999-68.744056-70.380819-68.744056z" fill="" /><path d="M516.251493 726.677866c-38.873127 0-70.380819 30.791608-70.38082 68.744056s31.507692 68.744056 70.38082 68.744056 70.380819-30.791608 70.380819-68.744056-31.60999-68.744056-70.380819-68.744056z" fill="#FFFFFF" /></svg>