<?xml version="1.0" standalone="no"?><!DOCTYPE svg PUBLIC "-//W3C//DTD SVG 1.1//EN" "http://www.w3.org/Graphics/SVG/1.1/DTD/svg11.dtd"><svg class="icon" height="512" viewBox="0 0 1024 1024" version="1.1" xmlns="http://www.w3.org/2000/svg"><path d="M729.077 522.604c-0.434-0.461-0.879-0.927-1.411-1.271-3.65-2.514-8.646-1.602-11.193 2.08l-28.604 41.813-28.584 41.813a7.57 7.57 0 0 0-0.563 0.957c20.508-31.201 51.734-54.758 88.397-65.383l-18.043-20.039v0.033h0.003l-0.002-0.003z" fill="" /><path d="M859.781 248.97v303.104a158.459 158.459 0 0 1 34.439 22.604V248.97c0-44.894-34.873-81.282-81.59-81.282H183.666c-46.736 0-81.59 36.389-81.59 81.282v415.104h34.438V248.97c0-26.589 20.271-46.648 47.15-46.648h628.967c26.883-0.005 47.15 20.059 47.15 46.648z" fill="" /><path d="M655.905 776.975c-21.766 17.234-45.475 30.33-70.139 39.396l9.439-16.615 16.377-28.57a7.613 7.613 0 0 0 0.881-2.033 8.106 8.106 0 0 0-5.443-10.07l-48.354-14.463-48.118-14.396c-1.825-0.621-3.854-0.537-5.72 0.258l-46.373 19.957-46.443 19.941v0.033a7.713 7.713 0 0 0-1.551 0.932c-3.549 2.635-4.354 7.729-1.688 11.299l19.687 26.762 11.35 15.428c-53.836-12.83-103.942-43.311-140.865-90.322-0.761-0.998-1.565-1.996-2.29-2.961l18.442 3.219 31.979 5.6c0.792 0.188 1.636 0.309 2.498 0.271 4.46-0.311 7.851-4.133 7.542-8.625l-3.048-50.646-2.997-50.543a8.043 8.043 0 0 0-2.172-5.129l-34.492-37.041-34.575-37.025a7.724 7.724 0 0 0-1.414-1.189c-3.685-2.479-8.713-1.479-11.143 2.26L248.987 580.5l-4.602 6.975c-0.601-13.861-0.122-27.725 1.482-41.436 4.875-41.964 20.024-82.708 44.965-118.095l0.962 9.797 3.271 33.166c0.068 0.621 0.229 1.226 0.416 1.843a8.025 8.025 0 0 0 10.25 5.012l47.696-16.498 47.703-16.548a8.121 8.121 0 0 0 4.271-3.439l26.175-43.383 26.052-43.152c0.379-0.589 0.723-1.224 0.946-1.911 1.325-4.254-0.946-8.815-5.216-10.195l-31.48-10.265-0.944-0.31c34.938-11.244 71.567-14.621 107.285-10.401a254.019 254.019 0 0 1 40.348 8.112l-9.338 4.219-30.219 13.621 0.034 0.035c-0.606 0.276-1.141 0.585-1.59 0.963-3.549 2.724-4.198 7.82-1.498 11.332l30.724 40.279 30.467 39.899c1.1 1.619 2.771 2.843 4.781 3.292l49.233 11.259 49.217 11.23a9.946 9.946 0 0 0 1.88 0.188c4.44-0.033 8.024-3.686 7.957-8.194l-0.314-33.306-0.065-5.372c28.399 36.932 45.19 79.175 50.938 122.389a157.447 157.447 0 0 1 23.258-4.293C755.23 400.954 638.89 295.969 498.143 295.969c-153.844 0-278.558 125.436-278.558 280.184 0 154.727 124.714 280.16 278.558 280.16 64.875 0 124.57-22.307 171.916-59.701a159.77 159.77 0 0 1-14.154-19.637z" fill="" /><path d="M564.448 486.493c-1.141-3.325-4.344-5.667-7.991-5.512l-58.584 2.409-58.447 2.376c-3.458 0.033-6.63 2.374-7.61 5.893L415.97 548.45l-15.845 56.778c-0.945 3.286 0.313 6.974 3.275 8.952l48.817 32.705 48.389 32.479a7.99 7.99 0 0 0 9.853-0.125l46.065-36.559 45.996-36.577v-0.03c2.666-2.067 3.805-5.785 2.603-9.146L584.715 541.6l-20.267-55.107z" fill="" /><path d="M791.397 559.681c-71.957 0-130.527 58.568-130.527 130.526 0 72.001 58.568 130.529 130.527 130.529 72.004 0 130.527-58.569 130.527-130.529 0-71.958-58.523-130.526-130.527-130.526z" fill="#239156" /><path d="M854.383 668.686l-74.979 75.815s-0.045 0.046-0.094 0.046c-0.045 0-0.045 0.048-0.045 0.094-0.607 0.561-1.353 0.928-2.049 1.351-0.326 0.188-0.604 0.513-0.976 0.648a9.175 9.175 0 0 1-7.016 0c-0.371-0.142-0.697-0.465-1.021-0.698-0.696-0.371-1.396-0.74-2-1.349 0 0-0.049-0.047-0.049-0.092s-0.045-0.048-0.09-0.048l-36.865-37.884c-3.629-3.722-3.531-9.623 0.188-13.248 3.721-3.582 9.621-3.535 13.248 0.188l30.217 31.049 68.235-69.071c3.628-3.676 9.574-3.722 13.246-0.096 3.675 3.672 3.675 9.622 0.05 13.295z" fill="#FFFFFF" /></svg>